<svg width="129" height="27" viewBox="0 0 129 27" fill="none" xmlns="http://www.w3.org/2000/svg">
<g filter="url(#filter0_d_378_4293)">
<mask id="path-1-outside-1_378_4293" maskUnits="userSpaceOnUse" x="1" y="-2.5" width="128" height="25" fill="black">
<rect fill="white" x="1" y="-2.5" width="128" height="25"/>
<path d="M4.95703 1.26172H8.4375C10.3203 1.26172 11.6758 1.4375 12.5039 1.78906C13.3398 2.13281 13.9961 2.69531 14.4727 3.47656C14.957 4.25 15.1992 5.17969 15.1992 6.26562C15.1992 7.46875 14.8828 8.46875 14.25 9.26562C13.625 10.0625 12.7734 10.6172 11.6953 10.9297C11.0625 11.1094 9.91016 11.1992 8.23828 11.1992V18.5H4.95703V1.26172ZM8.23828 8H9.28125C10.1016 8 10.6719 7.94141 10.9922 7.82422C11.3125 7.70703 11.5625 7.51562 11.7422 7.25C11.9297 6.97656 12.0234 6.64844 12.0234 6.26562C12.0234 5.60156 11.7656 5.11719 11.25 4.8125C10.875 4.58594 10.1797 4.47266 9.16406 4.47266H8.23828V8ZM27.4922 5.75H30.6797V18.5H27.4922V17.1523C26.8672 17.7461 26.2383 18.1758 25.6055 18.4414C24.9805 18.6992 24.3008 18.8281 23.5664 18.8281C21.918 18.8281 20.4922 18.1914 19.2891 16.918C18.0859 15.6367 17.4844 14.0469 17.4844 12.1484C17.4844 10.1797 18.0664 8.56641 19.2305 7.30859C20.3945 6.05078 21.8086 5.42188 23.4727 5.42188C24.2383 5.42188 24.957 5.56641 25.6289 5.85547C26.3008 6.14453 26.9219 6.57812 27.4922 7.15625V5.75ZM24.1289 8.375C23.1367 8.375 22.3125 8.72656 21.6562 9.42969C21 10.125 20.6719 11.0195 20.6719 12.1133C20.6719 13.2148 21.0039 14.1211 21.668 14.832C22.3398 15.543 23.1641 15.8984 24.1406 15.8984C25.1484 15.8984 25.9844 15.5508 26.6484 14.8555C27.3125 14.1523 27.6445 13.2344 27.6445 12.1016C27.6445 10.9922 27.3125 10.0938 26.6484 9.40625C25.9844 8.71875 25.1445 8.375 24.1289 8.375ZM34.3008 1.05078H37.4883V5.75H39.3867V8.50391H37.4883V18.5H34.3008V8.50391H32.6602V5.75H34.3008V1.05078ZM41.1211 0.828125H44.2969V7.03906C44.9219 6.5 45.5508 6.09766 46.1836 5.83203C46.8164 5.55859 47.457 5.42188 48.1055 5.42188C49.3711 5.42188 50.4375 5.85938 51.3047 6.73438C52.0469 7.49219 52.418 8.60547 52.418 10.0742V18.5H49.2656V12.9102C49.2656 11.4336 49.1953 10.4336 49.0547 9.91016C48.9141 9.38672 48.6719 8.99609 48.3281 8.73828C47.9922 8.48047 47.5742 8.35156 47.0742 8.35156C46.4258 8.35156 45.8672 8.56641 45.3984 8.99609C44.9375 9.42578 44.6172 10.0117 44.4375 10.7539C44.3438 11.1367 44.2969 12.0117 44.2969 13.3789V18.5H41.1211V0.828125ZM55.9219 1.26172H64.4766V4.46094H59.168V7.58984H64.4766V10.7422H59.168V18.5H55.9219V1.26172ZM68.3086 0.5C68.8711 0.5 69.3516 0.703125 69.75 1.10938C70.1562 1.51563 70.3594 2.00781 70.3594 2.58594C70.3594 3.15625 70.1602 3.64453 69.7617 4.05078C69.3633 4.44922 68.8867 4.64844 68.332 4.64844C67.7617 4.64844 67.2734 4.44531 66.8672 4.03906C66.4688 3.625 66.2695 3.125 66.2695 2.53906C66.2695 1.97656 66.4688 1.49609 66.8672 1.09766C67.2656 0.699219 67.7461 0.5 68.3086 0.5ZM66.7031 5.75H69.9141V18.5H66.7031V5.75ZM72.8203 5.75H76.0078V7.05078C76.7344 6.44141 77.3906 6.01953 77.9766 5.78516C78.5703 5.54297 79.1758 5.42188 79.793 5.42188C81.0586 5.42188 82.1328 5.86328 83.0156 6.74609C83.7578 7.49609 84.1289 8.60547 84.1289 10.0742V18.5H80.9648V12.9102C80.9648 11.3867 80.8945 10.375 80.7539 9.875C80.6211 9.375 80.3828 8.99609 80.0391 8.73828C79.7031 8.47266 79.2852 8.33984 78.7852 8.33984C78.1367 8.33984 77.5781 8.55859 77.1094 8.99609C76.6484 9.42578 76.3281 10.0234 76.1484 10.7891C76.0547 11.1875 76.0078 12.0508 76.0078 13.3789V18.5H72.8203V5.75ZM96.6562 0.828125H99.8438V18.5H96.6562V17.1523C96.0312 17.7461 95.4023 18.1758 94.7695 18.4414C94.1445 18.6992 93.4648 18.8281 92.7305 18.8281C91.082 18.8281 89.6562 18.1914 88.4531 16.918C87.25 15.6367 86.6484 14.0469 86.6484 12.1484C86.6484 10.1797 87.2305 8.56641 88.3945 7.30859C89.5586 6.05078 90.9727 5.42188 92.6367 5.42188C93.4023 5.42188 94.1211 5.56641 94.793 5.85547C95.4648 6.14453 96.0859 6.57812 96.6562 7.15625V0.828125ZM93.293 8.375C92.3008 8.375 91.4766 8.72656 90.8203 9.42969C90.1641 10.125 89.8359 11.0195 89.8359 12.1133C89.8359 13.2148 90.168 14.1211 90.832 14.832C91.5039 15.543 92.3281 15.8984 93.3047 15.8984C94.3125 15.8984 95.1484 15.5508 95.8125 14.8555C96.4766 14.1523 96.8086 13.2344 96.8086 12.1016C96.8086 10.9922 96.4766 10.0938 95.8125 9.40625C95.1484 8.71875 94.3086 8.375 93.293 8.375ZM115.852 13.0508H105.574C105.723 13.957 106.117 14.6797 106.758 15.2188C107.406 15.75 108.23 16.0156 109.23 16.0156C110.426 16.0156 111.453 15.5977 112.312 14.7617L115.008 16.0273C114.336 16.9805 113.531 17.6875 112.594 18.1484C111.656 18.6016 110.543 18.8281 109.254 18.8281C107.254 18.8281 105.625 18.1992 104.367 16.9414C103.109 15.6758 102.48 14.0938 102.48 12.1953C102.48 10.25 103.105 8.63672 104.355 7.35547C105.613 6.06641 107.188 5.42188 109.078 5.42188C111.086 5.42188 112.719 6.06641 113.977 7.35547C115.234 8.63672 115.863 10.332 115.863 12.4414L115.852 13.0508ZM112.641 10.5312C112.43 9.82031 112.012 9.24219 111.387 8.79688C110.77 8.35156 110.051 8.12891 109.23 8.12891C108.34 8.12891 107.559 8.37891 106.887 8.87891C106.465 9.19141 106.074 9.74219 105.715 10.5312H112.641ZM117.703 5.75H120.445V7.35547C120.742 6.72266 121.137 6.24219 121.629 5.91406C122.121 5.58594 122.66 5.42188 123.246 5.42188C123.66 5.42188 124.094 5.53125 124.547 5.75L123.551 8.50391C123.176 8.31641 122.867 8.22266 122.625 8.22266C122.133 8.22266 121.715 8.52734 121.371 9.13672C121.035 9.74609 120.867 10.9414 120.867 12.7227L120.879 13.3438V18.5H117.703V5.75Z"/>
</mask>
<path d="M4.95703 1.26172H8.4375C10.3203 1.26172 11.6758 1.4375 12.5039 1.78906C13.3398 2.13281 13.9961 2.69531 14.4727 3.47656C14.957 4.25 15.1992 5.17969 15.1992 6.26562C15.1992 7.46875 14.8828 8.46875 14.25 9.26562C13.625 10.0625 12.7734 10.6172 11.6953 10.9297C11.0625 11.1094 9.91016 11.1992 8.23828 11.1992V18.5H4.95703V1.26172ZM8.23828 8H9.28125C10.1016 8 10.6719 7.94141 10.9922 7.82422C11.3125 7.70703 11.5625 7.51562 11.7422 7.25C11.9297 6.97656 12.0234 6.64844 12.0234 6.26562C12.0234 5.60156 11.7656 5.11719 11.25 4.8125C10.875 4.58594 10.1797 4.47266 9.16406 4.47266H8.23828V8ZM27.4922 5.75H30.6797V18.5H27.4922V17.1523C26.8672 17.7461 26.2383 18.1758 25.6055 18.4414C24.9805 18.6992 24.3008 18.8281 23.5664 18.8281C21.918 18.8281 20.4922 18.1914 19.2891 16.918C18.0859 15.6367 17.4844 14.0469 17.4844 12.1484C17.4844 10.1797 18.0664 8.56641 19.2305 7.30859C20.3945 6.05078 21.8086 5.42188 23.4727 5.42188C24.2383 5.42188 24.957 5.56641 25.6289 5.85547C26.3008 6.14453 26.9219 6.57812 27.4922 7.15625V5.75ZM24.1289 8.375C23.1367 8.375 22.3125 8.72656 21.6562 9.42969C21 10.125 20.6719 11.0195 20.6719 12.1133C20.6719 13.2148 21.0039 14.1211 21.668 14.832C22.3398 15.543 23.1641 15.8984 24.1406 15.8984C25.1484 15.8984 25.9844 15.5508 26.6484 14.8555C27.3125 14.1523 27.6445 13.2344 27.6445 12.1016C27.6445 10.9922 27.3125 10.0938 26.6484 9.40625C25.9844 8.71875 25.1445 8.375 24.1289 8.375ZM34.3008 1.05078H37.4883V5.75H39.3867V8.50391H37.4883V18.5H34.3008V8.50391H32.6602V5.75H34.3008V1.05078ZM41.1211 0.828125H44.2969V7.03906C44.9219 6.5 45.5508 6.09766 46.1836 5.83203C46.8164 5.55859 47.457 5.42188 48.1055 5.42188C49.3711 5.42188 50.4375 5.85938 51.3047 6.73438C52.0469 7.49219 52.418 8.60547 52.418 10.0742V18.5H49.2656V12.9102C49.2656 11.4336 49.1953 10.4336 49.0547 9.91016C48.9141 9.38672 48.6719 8.99609 48.3281 8.73828C47.9922 8.48047 47.5742 8.35156 47.0742 8.35156C46.4258 8.35156 45.8672 8.56641 45.3984 8.99609C44.9375 9.42578 44.6172 10.0117 44.4375 10.7539C44.3438 11.1367 44.2969 12.0117 44.2969 13.3789V18.5H41.1211V0.828125ZM55.9219 1.26172H64.4766V4.46094H59.168V7.58984H64.4766V10.7422H59.168V18.5H55.9219V1.26172ZM68.3086 0.5C68.8711 0.5 69.3516 0.703125 69.75 1.10938C70.1562 1.51563 70.3594 2.00781 70.3594 2.58594C70.3594 3.15625 70.1602 3.64453 69.7617 4.05078C69.3633 4.44922 68.8867 4.64844 68.332 4.64844C67.7617 4.64844 67.2734 4.44531 66.8672 4.03906C66.4688 3.625 66.2695 3.125 66.2695 2.53906C66.2695 1.97656 66.4688 1.49609 66.8672 1.09766C67.2656 0.699219 67.7461 0.5 68.3086 0.5ZM66.7031 5.75H69.9141V18.5H66.7031V5.75ZM72.8203 5.75H76.0078V7.05078C76.7344 6.44141 77.3906 6.01953 77.9766 5.78516C78.5703 5.54297 79.1758 5.42188 79.793 5.42188C81.0586 5.42188 82.1328 5.86328 83.0156 6.74609C83.7578 7.49609 84.1289 8.60547 84.1289 10.0742V18.5H80.9648V12.9102C80.9648 11.3867 80.8945 10.375 80.7539 9.875C80.6211 9.375 80.3828 8.99609 80.0391 8.73828C79.7031 8.47266 79.2852 8.33984 78.7852 8.33984C78.1367 8.33984 77.5781 8.55859 77.1094 8.99609C76.6484 9.42578 76.3281 10.0234 76.1484 10.7891C76.0547 11.1875 76.0078 12.0508 76.0078 13.3789V18.5H72.8203V5.75ZM96.6562 0.828125H99.8438V18.5H96.6562V17.1523C96.0312 17.7461 95.4023 18.1758 94.7695 18.4414C94.1445 18.6992 93.4648 18.8281 92.7305 18.8281C91.082 18.8281 89.6562 18.1914 88.4531 16.918C87.25 15.6367 86.6484 14.0469 86.6484 12.1484C86.6484 10.1797 87.2305 8.56641 88.3945 7.30859C89.5586 6.05078 90.9727 5.42188 92.6367 5.42188C93.4023 5.42188 94.1211 5.56641 94.793 5.85547C95.4648 6.14453 96.0859 6.57812 96.6562 7.15625V0.828125ZM93.293 8.375C92.3008 8.375 91.4766 8.72656 90.8203 9.42969C90.1641 10.125 89.8359 11.0195 89.8359 12.1133C89.8359 13.2148 90.168 14.1211 90.832 14.832C91.5039 15.543 92.3281 15.8984 93.3047 15.8984C94.3125 15.8984 95.1484 15.5508 95.8125 14.8555C96.4766 14.1523 96.8086 13.2344 96.8086 12.1016C96.8086 10.9922 96.4766 10.0938 95.8125 9.40625C95.1484 8.71875 94.3086 8.375 93.293 8.375ZM115.852 13.0508H105.574C105.723 13.957 106.117 14.6797 106.758 15.2188C107.406 15.75 108.23 16.0156 109.23 16.0156C110.426 16.0156 111.453 15.5977 112.312 14.7617L115.008 16.0273C114.336 16.9805 113.531 17.6875 112.594 18.1484C111.656 18.6016 110.543 18.8281 109.254 18.8281C107.254 18.8281 105.625 18.1992 104.367 16.9414C103.109 15.6758 102.48 14.0938 102.48 12.1953C102.48 10.25 103.105 8.63672 104.355 7.35547C105.613 6.06641 107.188 5.42188 109.078 5.42188C111.086 5.42188 112.719 6.06641 113.977 7.35547C115.234 8.63672 115.863 10.332 115.863 12.4414L115.852 13.0508ZM112.641 10.5312C112.43 9.82031 112.012 9.24219 111.387 8.79688C110.77 8.35156 110.051 8.12891 109.23 8.12891C108.34 8.12891 107.559 8.37891 106.887 8.87891C106.465 9.19141 106.074 9.74219 105.715 10.5312H112.641ZM117.703 5.75H120.445V7.35547C120.742 6.72266 121.137 6.24219 121.629 5.91406C122.121 5.58594 122.66 5.42188 123.246 5.42188C123.66 5.42188 124.094 5.53125 124.547 5.75L123.551 8.50391C123.176 8.31641 122.867 8.22266 122.625 8.22266C122.133 8.22266 121.715 8.52734 121.371 9.13672C121.035 9.74609 120.867 10.9414 120.867 12.7227L120.879 13.3438V18.5H117.703V5.75Z" fill="#363636"/>
<path d="M4.95703 1.26172V-1.73828H1.95703V1.26172H4.95703ZM12.5039 1.78906L11.3316 4.55052L11.3472 4.55717L11.363 4.56363L12.5039 1.78906ZM14.4727 3.47656L11.9115 5.03884L11.9207 5.05391L11.9301 5.06887L14.4727 3.47656ZM14.25 9.26562L11.9007 7.39998L11.895 7.40707L11.8894 7.41421L14.25 9.26562ZM11.6953 10.9297L12.5148 13.8156L12.5226 13.8134L12.5305 13.8111L11.6953 10.9297ZM8.23828 11.1992V8.19922H5.23828V11.1992H8.23828ZM8.23828 18.5V21.5H11.2383V18.5H8.23828ZM4.95703 18.5H1.95703V21.5H4.95703V18.5ZM8.23828 8H5.23828V11H8.23828V8ZM11.7422 7.25L9.268 5.55341L9.26264 5.56123L9.25734 5.56907L11.7422 7.25ZM11.25 4.8125L9.69865 7.38025L9.7112 7.38782L9.72381 7.39528L11.25 4.8125ZM8.23828 4.47266V1.47266H5.23828V4.47266H8.23828ZM4.95703 4.26172H8.4375V-1.73828H4.95703V4.26172ZM8.4375 4.26172C10.2619 4.26172 11.0962 4.45058 11.3316 4.55052L13.6762 -0.972399C12.2554 -1.57558 10.3788 -1.73828 8.4375 -1.73828V4.26172ZM11.363 4.56363C11.6007 4.66141 11.7629 4.79515 11.9115 5.03884L17.0338 1.91428C16.2293 0.59547 15.079 -0.395782 13.6449 -0.985509L11.363 4.56363ZM11.9301 5.06887C12.0629 5.28094 12.1992 5.6347 12.1992 6.26562H18.1992C18.1992 4.72467 17.8511 3.21906 17.0152 1.88426L11.9301 5.06887ZM12.1992 6.26562C12.1992 6.91979 12.0386 7.22627 11.9007 7.39998L16.5993 11.1313C17.727 9.71123 18.1992 8.01771 18.1992 6.26562H12.1992ZM11.8894 7.41421C11.6943 7.66304 11.403 7.89093 10.8601 8.04829L12.5305 13.8111C14.1439 13.3434 15.5557 12.462 16.6106 11.117L11.8894 7.41421ZM10.8759 8.04378C10.8787 8.04296 10.864 8.0472 10.828 8.05464C10.7924 8.06197 10.7422 8.07114 10.6754 8.08123C10.54 8.10168 10.3583 8.12259 10.1233 8.14091C9.65043 8.17778 9.02743 8.19922 8.23828 8.19922V14.1992C9.88986 14.1992 11.4315 14.1232 12.5148 13.8156L10.8759 8.04378ZM5.23828 11.1992V18.5H11.2383V11.1992H5.23828ZM8.23828 15.5H4.95703V21.5H8.23828V15.5ZM7.95703 18.5V1.26172H1.95703V18.5H7.95703ZM8.23828 11H9.28125V5H8.23828V11ZM9.28125 11C10.0959 11 11.1515 10.9604 12.0229 10.6416L9.96144 5.00685C10.0171 4.98649 10.0594 4.97421 10.0841 4.96757C10.1093 4.96083 10.1234 4.95805 10.1242 4.9579C10.1252 4.9577 10.1169 4.95935 10.0981 4.96206C10.0794 4.96475 10.0529 4.96814 10.0176 4.97176C9.8673 4.98721 9.62859 5 9.28125 5V11ZM12.0229 10.6416C12.8954 10.3224 13.671 9.75288 14.227 8.93093L9.25734 5.56907C9.34524 5.43913 9.45969 5.31526 9.59619 5.21076C9.73119 5.1074 9.86041 5.04381 9.96144 5.00685L12.0229 10.6416ZM14.2164 8.94659C14.7972 8.09962 15.0234 7.15762 15.0234 6.26562H9.02344C9.02344 6.21168 9.03019 6.10895 9.06855 5.97466C9.10791 5.83692 9.17347 5.69127 9.268 5.55341L14.2164 8.94659ZM15.0234 6.26562C15.0234 4.67958 14.3189 3.14131 12.7762 2.22972L9.72381 7.39528C9.55183 7.29365 9.33549 7.10253 9.18184 6.81384C9.036 6.53985 9.02344 6.32269 9.02344 6.26562H15.0234ZM12.8013 2.24475C12.1472 1.84954 11.4533 1.68197 10.9297 1.59666C10.3698 1.50544 9.76941 1.47266 9.16406 1.47266V7.47266C9.57434 7.47266 9.82943 7.49651 9.96486 7.51858C10.0291 7.52904 10.036 7.53431 10.0008 7.52314C9.969 7.51305 9.85448 7.47439 9.69865 7.38025L12.8013 2.24475ZM9.16406 1.47266H8.23828V7.47266H9.16406V1.47266ZM5.23828 4.47266V8H11.2383V4.47266H5.23828ZM27.4922 5.75V2.75H24.4922V5.75H27.4922ZM30.6797 5.75H33.6797V2.75H30.6797V5.75ZM30.6797 18.5V21.5H33.6797V18.5H30.6797ZM27.4922 18.5H24.4922V21.5H27.4922V18.5ZM27.4922 17.1523H30.4922V10.1644L25.4259 14.9773L27.4922 17.1523ZM25.6055 18.4414L26.7495 21.2147L26.758 21.2112L26.7666 21.2076L25.6055 18.4414ZM19.2891 16.918L17.1021 18.9716L17.1084 18.9782L19.2891 16.918ZM27.4922 7.15625L25.3565 9.26309L30.4922 14.4691V7.15625H27.4922ZM21.6562 9.42969L23.838 11.4888L23.8437 11.4828L23.8494 11.4766L21.6562 9.42969ZM21.668 14.832L19.4756 16.8798L19.4816 16.8862L19.4876 16.8926L21.668 14.832ZM26.6484 14.8555L28.818 16.9275L28.8237 16.9214L28.8295 16.9153L26.6484 14.8555ZM27.4922 8.75H30.6797V2.75H27.4922V8.75ZM27.6797 5.75V18.5H33.6797V5.75H27.6797ZM30.6797 15.5H27.4922V21.5H30.6797V15.5ZM30.4922 18.5V17.1523H24.4922V18.5H30.4922ZM25.4259 14.9773C24.9996 15.3824 24.6686 15.5811 24.4444 15.6752L26.7666 21.2076C27.808 20.7705 28.7348 20.1098 29.5584 19.3273L25.4259 14.9773ZM24.4615 15.6681C24.2295 15.7638 23.9424 15.8281 23.5664 15.8281V21.8281C24.6592 21.8281 25.7314 21.6347 26.7495 21.2147L24.4615 15.6681ZM23.5664 15.8281C22.7994 15.8281 22.146 15.5735 21.4697 14.8577L17.1084 18.9782C18.8384 20.8094 21.0365 21.8281 23.5664 21.8281V15.8281ZM21.476 14.8644C20.8392 14.1863 20.4844 13.3507 20.4844 12.1484H14.4844C14.4844 14.743 15.3326 17.0872 17.1021 18.9716L21.476 14.8644ZM20.4844 12.1484C20.4844 10.8147 20.8577 9.96708 21.4323 9.34627L17.0287 5.27092C15.2751 7.16573 14.4844 9.54467 14.4844 12.1484H20.4844ZM21.4323 9.34627C22.0477 8.68121 22.6724 8.42188 23.4727 8.42188V2.42188C20.9448 2.42188 18.7413 3.42035 17.0287 5.27092L21.4323 9.34627ZM23.4727 8.42188C23.85 8.42188 24.1634 8.49082 24.4433 8.61124L26.8145 3.09969C25.7507 2.642 24.6265 2.42188 23.4727 2.42188V8.42188ZM24.4433 8.61124C24.7223 8.7313 25.028 8.93015 25.3565 9.26309L29.6279 5.04941C28.8157 4.2261 27.8792 3.55776 26.8145 3.09969L24.4433 8.61124ZM30.4922 7.15625V5.75H24.4922V7.15625H30.4922ZM24.1289 5.375C22.3349 5.375 20.7067 6.05032 19.4631 7.38273L23.8494 11.4766C23.8842 11.4393 23.9085 11.4203 23.9206 11.4116C23.9322 11.4034 23.9391 11.4001 23.9436 11.3981C23.9456 11.3973 23.9938 11.375 24.1289 11.375V5.375ZM19.4745 7.37054C18.2166 8.70336 17.6719 10.3726 17.6719 12.1133H23.6719C23.6719 11.6665 23.7834 11.5466 23.838 11.4888L19.4745 7.37054ZM17.6719 12.1133C17.6719 13.8667 18.223 15.5388 19.4756 16.8798L23.8603 12.7842C23.7848 12.7034 23.6719 12.563 23.6719 12.1133H17.6719ZM19.4876 16.8926C20.7251 18.202 22.3375 18.8984 24.1406 18.8984V12.8984C24.0247 12.8984 23.9831 12.8793 23.9781 12.8771C23.973 12.8749 23.9295 12.8573 23.8483 12.7715L19.4876 16.8926ZM24.1406 18.8984C25.9237 18.8984 27.558 18.2468 28.818 16.9275L24.4789 12.7835C24.4159 12.8494 24.382 12.8633 24.3714 12.8677C24.3577 12.8734 24.2939 12.8984 24.1406 12.8984V18.8984ZM28.8295 16.9153C30.1085 15.5611 30.6445 13.8601 30.6445 12.1016H24.6445C24.6445 12.6086 24.5165 12.7436 24.4674 12.7956L28.8295 16.9153ZM30.6445 12.1016C30.6445 10.3489 30.0972 8.65857 28.8062 7.32203L24.4907 11.4905C24.5278 11.5289 24.6445 11.6355 24.6445 12.1016H30.6445ZM28.8062 7.32203C27.5386 6.00966 25.9015 5.375 24.1289 5.375V11.375C24.2934 11.375 24.3654 11.4016 24.3841 11.4092C24.3989 11.4153 24.4318 11.4295 24.4907 11.4905L28.8062 7.32203ZM34.3008 1.05078V-1.94922H31.3008V1.05078H34.3008ZM37.4883 1.05078H40.4883V-1.94922H37.4883V1.05078ZM37.4883 5.75H34.4883V8.75H37.4883V5.75ZM39.3867 5.75H42.3867V2.75H39.3867V5.75ZM39.3867 8.50391V11.5039H42.3867V8.50391H39.3867ZM37.4883 8.50391V5.50391H34.4883V8.50391H37.4883ZM37.4883 18.5V21.5H40.4883V18.5H37.4883ZM34.3008 18.5H31.3008V21.5H34.3008V18.5ZM34.3008 8.50391H37.3008V5.50391H34.3008V8.50391ZM32.6602 8.50391H29.6602V11.5039H32.6602V8.50391ZM32.6602 5.75V2.75H29.6602V5.75H32.6602ZM34.3008 5.75V8.75H37.3008V5.75H34.3008ZM34.3008 4.05078H37.4883V-1.94922H34.3008V4.05078ZM34.4883 1.05078V5.75H40.4883V1.05078H34.4883ZM37.4883 8.75H39.3867V2.75H37.4883V8.75ZM36.3867 5.75V8.50391H42.3867V5.75H36.3867ZM39.3867 5.50391H37.4883V11.5039H39.3867V5.50391ZM34.4883 8.50391V18.5H40.4883V8.50391H34.4883ZM37.4883 15.5H34.3008V21.5H37.4883V15.5ZM37.3008 18.5V8.50391H31.3008V18.5H37.3008ZM34.3008 5.50391H32.6602V11.5039H34.3008V5.50391ZM35.6602 8.50391V5.75H29.6602V8.50391H35.6602ZM32.6602 8.75H34.3008V2.75H32.6602V8.75ZM37.3008 5.75V1.05078H31.3008V5.75H37.3008ZM41.1211 0.828125V-2.17188H38.1211V0.828125H41.1211ZM44.2969 0.828125H47.2969V-2.17188H44.2969V0.828125ZM44.2969 7.03906H41.2969V13.5883L46.2563 9.31081L44.2969 7.03906ZM46.1836 5.83203L47.3447 8.59822L47.3592 8.59215L47.3736 8.58594L46.1836 5.83203ZM51.3047 6.73438L53.448 4.63527L53.4418 4.62891L53.4355 4.62259L51.3047 6.73438ZM52.418 18.5V21.5H55.418V18.5H52.418ZM49.2656 18.5H46.2656V21.5H49.2656V18.5ZM48.3281 8.73828L46.5017 11.1182L46.5148 11.1283L46.5281 11.1383L48.3281 8.73828ZM45.3984 8.99609L43.3713 6.78463L43.362 6.79312L43.3528 6.80169L45.3984 8.99609ZM44.4375 10.7539L47.3514 11.4675L47.3533 11.4598L44.4375 10.7539ZM44.2969 18.5V21.5H47.2969V18.5H44.2969ZM41.1211 18.5H38.1211V21.5H41.1211V18.5ZM41.1211 3.82812H44.2969V-2.17188H41.1211V3.82812ZM41.2969 0.828125V7.03906H47.2969V0.828125H41.2969ZM46.2563 9.31081C46.6895 8.93712 47.0542 8.72016 47.3447 8.59822L45.0225 3.06584C44.0474 3.47515 43.1542 4.06288 42.3375 4.76732L46.2563 9.31081ZM47.3736 8.58594C47.6547 8.46444 47.8918 8.42188 48.1055 8.42188V2.42188C47.0223 2.42188 45.9781 2.65275 44.9936 3.07813L47.3736 8.58594ZM48.1055 8.42188C48.5953 8.42188 48.8871 8.5568 49.1739 8.84616L53.4355 4.62259C51.9879 3.16195 50.1469 2.42188 48.1055 2.42188V8.42188ZM49.1614 8.83348C49.1718 8.84416 49.418 9.08361 49.418 10.0742H55.418C55.418 8.12732 54.9219 6.14021 53.448 4.63527L49.1614 8.83348ZM49.418 10.0742V18.5H55.418V10.0742H49.418ZM52.418 15.5H49.2656V21.5H52.418V15.5ZM52.2656 18.5V12.9102H46.2656V18.5H52.2656ZM52.2656 12.9102C52.2656 11.4738 52.2099 10.0918 51.952 9.13179L46.1574 10.6885C46.1523 10.6695 46.1893 10.8227 46.2203 11.2632C46.2488 11.6689 46.2656 12.2126 46.2656 12.9102H52.2656ZM51.952 9.13179C51.6835 8.13266 51.1359 7.09409 50.1281 6.33828L46.5281 11.1383C46.381 11.0279 46.2797 10.9052 46.2179 10.8054C46.1598 10.7117 46.1499 10.6606 46.1574 10.6885L51.952 9.13179ZM50.1546 6.35835C49.2043 5.62909 48.111 5.35156 47.0742 5.35156V11.3516C47.0666 11.3516 46.9936 11.3505 46.8786 11.315C46.7584 11.2779 46.6257 11.2134 46.5017 11.1182L50.1546 6.35835ZM47.0742 5.35156C45.6916 5.35156 44.4053 5.8368 43.3713 6.78463L47.4256 11.2076C47.4004 11.2307 47.3389 11.277 47.2459 11.3127C47.1538 11.3481 47.0873 11.3516 47.0742 11.3516V5.35156ZM43.3528 6.80169C42.3789 7.70957 41.81 8.85733 41.5217 10.048L47.3533 11.4598C47.3899 11.3086 47.4275 11.2286 47.4448 11.1968C47.4603 11.1685 47.462 11.1738 47.4441 11.1905L43.3528 6.80169ZM41.5236 10.0403C41.4048 10.5254 41.3607 11.0822 41.3363 11.5368C41.3089 12.0486 41.2969 12.6678 41.2969 13.3789H47.2969C47.2969 12.7228 47.3083 12.221 47.3277 11.8577C47.3374 11.6766 47.3482 11.5493 47.3574 11.4666C47.3681 11.3708 47.3712 11.3865 47.3514 11.4675L41.5236 10.0403ZM41.2969 13.3789V18.5H47.2969V13.3789H41.2969ZM44.2969 15.5H41.1211V21.5H44.2969V15.5ZM44.1211 18.5V0.828125H38.1211V18.5H44.1211ZM55.9219 1.26172V-1.73828H52.9219V1.26172H55.9219ZM64.4766 1.26172H67.4766V-1.73828H64.4766V1.26172ZM64.4766 4.46094V7.46094H67.4766V4.46094H64.4766ZM59.168 4.46094V1.46094H56.168V4.46094H59.168ZM59.168 7.58984H56.168V10.5898H59.168V7.58984ZM64.4766 7.58984H67.4766V4.58984H64.4766V7.58984ZM64.4766 10.7422V13.7422H67.4766V10.7422H64.4766ZM59.168 10.7422V7.74219H56.168V10.7422H59.168ZM59.168 18.5V21.5H62.168V18.5H59.168ZM55.9219 18.5H52.9219V21.5H55.9219V18.5ZM55.9219 4.26172H64.4766V-1.73828H55.9219V4.26172ZM61.4766 1.26172V4.46094H67.4766V1.26172H61.4766ZM64.4766 1.46094H59.168V7.46094H64.4766V1.46094ZM56.168 4.46094V7.58984H62.168V4.46094H56.168ZM59.168 10.5898H64.4766V4.58984H59.168V10.5898ZM61.4766 7.58984V10.7422H67.4766V7.58984H61.4766ZM64.4766 7.74219H59.168V13.7422H64.4766V7.74219ZM56.168 10.7422V18.5H62.168V10.7422H56.168ZM59.168 15.5H55.9219V21.5H59.168V15.5ZM58.9219 18.5V1.26172H52.9219V18.5H58.9219ZM69.75 1.10938L67.6082 3.21L67.6184 3.2204L67.6287 3.2307L69.75 1.10938ZM69.7617 4.05078L71.883 6.1721L71.8933 6.1618L71.9035 6.15141L69.7617 4.05078ZM66.8672 4.03906L64.7055 6.1192L64.7255 6.13999L64.7459 6.16038L66.8672 4.03906ZM66.7031 5.75V2.75H63.7031V5.75H66.7031ZM69.9141 5.75H72.9141V2.75H69.9141V5.75ZM69.9141 18.5V21.5H72.9141V18.5H69.9141ZM66.7031 18.5H63.7031V21.5H66.7031V18.5ZM68.3086 3.5C68.2203 3.5 68.0802 3.48217 67.9226 3.41556C67.7658 3.34924 67.6612 3.26402 67.6082 3.21L71.8918 -0.991251C70.9366 -1.96523 69.6873 -2.5 68.3086 -2.5V3.5ZM67.6287 3.2307C67.5746 3.17661 67.4947 3.07501 67.4339 2.92767C67.3733 2.7807 67.3594 2.65561 67.3594 2.58594H73.3594C73.3594 1.21777 72.8441 -0.039131 71.8713 -1.01195L67.6287 3.2307ZM67.3594 2.58594C67.3594 2.51439 67.3735 2.39065 67.4323 2.24658C67.4911 2.10238 67.5681 2.00297 67.6199 1.95016L71.9035 6.15141C72.8534 5.18289 73.3594 3.93982 73.3594 2.58594H67.3594ZM67.6404 1.92946C67.6922 1.87768 67.7947 1.7954 67.9484 1.73114C68.1031 1.66649 68.2418 1.64844 68.332 1.64844V7.64844C69.6964 7.64844 70.932 7.12314 71.883 6.1721L67.6404 1.92946ZM68.332 1.64844C68.4111 1.64844 68.5415 1.66428 68.6904 1.72621C68.8388 1.78795 68.9383 1.86752 68.9885 1.91774L64.7459 6.16038C65.7101 7.12457 66.9595 7.64844 68.332 7.64844V1.64844ZM69.0289 1.95892C69.0805 2.0125 69.1523 2.10857 69.2059 2.2431C69.259 2.37655 69.2695 2.4856 69.2695 2.53906H63.2695C63.2695 3.88366 63.7575 5.13407 64.7055 6.1192L69.0289 1.95892ZM69.2695 2.53906C69.2695 2.61974 69.2535 2.75308 69.1902 2.90588C69.1269 3.05858 69.0442 3.16326 68.9885 3.21898L64.7459 -1.02366C63.7859 -0.0637168 63.2695 1.17936 63.2695 2.53906H69.2695ZM68.9885 3.21898C68.9328 3.2747 68.8281 3.35733 68.6754 3.42064C68.5226 3.484 68.3893 3.5 68.3086 3.5V-2.5C66.9489 -2.5 65.7058 -1.98361 64.7459 -1.02366L68.9885 3.21898ZM66.7031 8.75H69.9141V2.75H66.7031V8.75ZM66.9141 5.75V18.5H72.9141V5.75H66.9141ZM69.9141 15.5H66.7031V21.5H69.9141V15.5ZM69.7031 18.5V5.75H63.7031V18.5H69.7031ZM72.8203 5.75V2.75H69.8203V5.75H72.8203ZM76.0078 5.75H79.0078V2.75H76.0078V5.75ZM76.0078 7.05078H73.0078V13.4824L77.9356 9.34936L76.0078 7.05078ZM77.9766 5.78516L79.0907 8.57059L79.1002 8.56681L79.1096 8.56296L77.9766 5.78516ZM83.0156 6.74609L85.148 4.63591L85.1425 4.63033L85.1369 4.62477L83.0156 6.74609ZM84.1289 18.5V21.5H87.1289V18.5H84.1289ZM80.9648 18.5H77.9648V21.5H80.9648V18.5ZM80.7539 9.875L77.8545 10.6452L77.86 10.6662L77.866 10.6872L80.7539 9.875ZM80.0391 8.73828L78.1784 11.0915L78.2084 11.1153L78.2391 11.1383L80.0391 8.73828ZM77.1094 8.99609L79.155 11.1905L79.1563 11.1893L77.1094 8.99609ZM76.1484 10.7891L79.0687 11.4762L79.0691 11.4745L76.1484 10.7891ZM76.0078 18.5V21.5H79.0078V18.5H76.0078ZM72.8203 18.5H69.8203V21.5H72.8203V18.5ZM72.8203 8.75H76.0078V2.75H72.8203V8.75ZM73.0078 5.75V7.05078H79.0078V5.75H73.0078ZM77.9356 9.34936C78.5282 8.85234 78.9088 8.64335 79.0907 8.57059L76.8624 2.99973C75.8724 3.39571 74.9405 4.03047 74.08 4.75221L77.9356 9.34936ZM79.1096 8.56296C79.3579 8.46168 79.5794 8.42188 79.793 8.42188V2.42188C78.7721 2.42188 77.7827 2.62426 76.8435 3.00735L79.1096 8.56296ZM79.793 8.42188C80.2752 8.42188 80.5827 8.55583 80.8943 8.86741L85.1369 4.62477C83.6829 3.17074 81.842 2.42188 79.793 2.42188V8.42188ZM80.8832 8.85628C80.8975 8.87066 80.9497 8.92535 81.0055 9.09231C81.0661 9.27333 81.1289 9.58437 81.1289 10.0742H87.1289C87.1289 8.12979 86.6338 6.13733 85.148 4.63591L80.8832 8.85628ZM81.1289 10.0742V18.5H87.1289V10.0742H81.1289ZM84.1289 15.5H80.9648V21.5H84.1289V15.5ZM83.9648 18.5V12.9102H77.9648V18.5H83.9648ZM83.9648 12.9102C83.9648 11.4523 83.9126 10.0255 83.6419 9.06276L77.866 10.6872C77.8505 10.6324 77.8877 10.7611 77.9193 11.2168C77.9479 11.6284 77.9648 12.1872 77.9648 12.9102H83.9648ZM83.6534 9.10483C83.384 8.09083 82.8256 7.07818 81.8391 6.33828L78.2391 11.1383C78.1052 11.0379 78.004 10.9209 77.936 10.8129C77.8714 10.7101 77.8538 10.6428 77.8545 10.6452L83.6534 9.10483ZM81.8998 6.38503C80.9483 5.63273 79.8424 5.33984 78.7852 5.33984V11.3398C78.7693 11.3398 78.6878 11.3376 78.5651 11.2986C78.4372 11.2579 78.3015 11.1889 78.1784 11.0915L81.8998 6.38503ZM78.7852 5.33984C77.3864 5.33984 76.0936 5.84048 75.0624 6.80293L79.1563 11.1893C79.133 11.211 79.071 11.2593 78.9738 11.2973C78.8773 11.3352 78.8048 11.3398 78.7852 11.3398V5.33984ZM75.0637 6.80169C74.0713 7.72682 73.5095 8.9033 73.2278 10.1036L79.0691 11.4745C79.1084 11.307 79.149 11.2185 79.1676 11.1837C79.1841 11.153 79.183 11.1644 79.155 11.1905L75.0637 6.80169ZM73.2282 10.1019C73.0399 10.9023 73.0078 12.1313 73.0078 13.3789H79.0078C79.0078 12.7437 79.0192 12.255 79.0386 11.898C79.0605 11.4934 79.0863 11.4015 79.0687 11.4762L73.2282 10.1019ZM73.0078 13.3789V18.5H79.0078V13.3789H73.0078ZM76.0078 15.5H72.8203V21.5H76.0078V15.5ZM75.8203 18.5V5.75H69.8203V18.5H75.8203ZM96.6562 0.828125V-2.17188H93.6562V0.828125H96.6562ZM99.8438 0.828125H102.844V-2.17188H99.8438V0.828125ZM99.8438 18.5V21.5H102.844V18.5H99.8438ZM96.6562 18.5H93.6562V21.5H96.6562V18.5ZM96.6562 17.1523H99.6562V10.1644L94.59 14.9773L96.6562 17.1523ZM94.7695 18.4414L95.9135 21.2147L95.9221 21.2112L95.9306 21.2076L94.7695 18.4414ZM88.4531 16.918L86.2662 18.9716L86.2725 18.9782L88.4531 16.918ZM96.6562 7.15625L94.5205 9.26309L99.6562 14.4691V7.15625H96.6562ZM90.8203 9.42969L93.002 11.4888L93.0078 11.4828L93.0135 11.4766L90.8203 9.42969ZM90.832 14.832L88.6397 16.8798L88.6456 16.8862L88.6517 16.8926L90.832 14.832ZM95.8125 14.8555L97.982 16.9275L97.9878 16.9214L97.9935 16.9153L95.8125 14.8555ZM96.6562 3.82812H99.8438V-2.17188H96.6562V3.82812ZM96.8438 0.828125V18.5H102.844V0.828125H96.8438ZM99.8438 15.5H96.6562V21.5H99.8438V15.5ZM99.6562 18.5V17.1523H93.6562V18.5H99.6562ZM94.59 14.9773C94.1636 15.3824 93.8327 15.5811 93.6084 15.6752L95.9306 21.2076C96.972 20.7705 97.8989 20.1098 98.7225 19.3273L94.59 14.9773ZM93.6255 15.6681C93.3936 15.7638 93.1064 15.8281 92.7305 15.8281V21.8281C93.8233 21.8281 94.8955 21.6347 95.9135 21.2147L93.6255 15.6681ZM92.7305 15.8281C91.9635 15.8281 91.31 15.5735 90.6338 14.8577L86.2725 18.9782C88.0025 20.8094 90.2006 21.8281 92.7305 21.8281V15.8281ZM90.6401 14.8644C90.0033 14.1863 89.6484 13.3507 89.6484 12.1484H83.6484C83.6484 14.743 84.4967 17.0872 86.2662 18.9716L90.6401 14.8644ZM89.6484 12.1484C89.6484 10.8147 90.0218 9.96708 90.5963 9.34627L86.1927 5.27092C84.4392 7.16573 83.6484 9.54467 83.6484 12.1484H89.6484ZM90.5963 9.34627C91.2118 8.68121 91.8365 8.42188 92.6367 8.42188V2.42188C90.1088 2.42188 87.9054 3.42035 86.1927 5.27092L90.5963 9.34627ZM92.6367 8.42188C93.0141 8.42188 93.3274 8.49082 93.6073 8.61124L95.9786 3.09969C94.9148 2.642 93.7906 2.42188 92.6367 2.42188V8.42188ZM93.6073 8.61124C93.8864 8.7313 94.1921 8.93015 94.5205 9.26309L98.792 5.04941C97.9798 4.2261 97.0433 3.55776 95.9786 3.09969L93.6073 8.61124ZM99.6562 7.15625V0.828125H93.6562V7.15625H99.6562ZM93.293 5.375C91.4989 5.375 89.8707 6.05032 88.6271 7.38273L93.0135 11.4766C93.0483 11.4393 93.0725 11.4203 93.0847 11.4116C93.0963 11.4034 93.1032 11.4001 93.1077 11.3981C93.1096 11.3973 93.1579 11.375 93.293 11.375V5.375ZM88.6386 7.37054C87.3806 8.70336 86.8359 10.3726 86.8359 12.1133H92.8359C92.8359 11.6665 92.9475 11.5466 93.002 11.4888L88.6386 7.37054ZM86.8359 12.1133C86.8359 13.8667 87.387 15.5388 88.6397 16.8798L93.0244 12.7842C92.9489 12.7034 92.8359 12.563 92.8359 12.1133H86.8359ZM88.6517 16.8926C89.8892 18.202 91.5015 18.8984 93.3047 18.8984V12.8984C93.1887 12.8984 93.1472 12.8793 93.1422 12.8771C93.1371 12.8749 93.0936 12.8573 93.0124 12.7715L88.6517 16.8926ZM93.3047 18.8984C95.0878 18.8984 96.722 18.2468 97.982 16.9275L93.643 12.7835C93.58 12.8494 93.5461 12.8633 93.5355 12.8677C93.5218 12.8734 93.458 12.8984 93.3047 12.8984V18.8984ZM97.9935 16.9153C99.2726 15.5611 99.8086 13.8601 99.8086 12.1016H93.8086C93.8086 12.6086 93.6806 12.7436 93.6315 12.7956L97.9935 16.9153ZM99.8086 12.1016C99.8086 10.3489 99.2613 8.65857 97.9703 7.32203L93.6547 11.4905C93.6919 11.5289 93.8086 11.6355 93.8086 12.1016H99.8086ZM97.9703 7.32203C96.7027 6.00966 95.0655 5.375 93.293 5.375V11.375C93.4574 11.375 93.5295 11.4016 93.5482 11.4092C93.563 11.4153 93.5958 11.4295 93.6547 11.4905L97.9703 7.32203ZM115.852 13.0508V16.0508H118.794L118.851 13.1085L115.852 13.0508ZM105.574 13.0508V10.0508H102.043L102.614 13.5357L105.574 13.0508ZM106.758 15.2188L104.826 17.5142L104.841 17.5269L104.857 17.5394L106.758 15.2188ZM112.312 14.7617L113.588 12.0462L111.709 11.1639L110.221 12.6113L112.312 14.7617ZM115.008 16.0273L117.46 17.7558L119.521 14.8322L116.283 13.3118L115.008 16.0273ZM112.594 18.1484L113.899 20.8495L113.908 20.8451L113.917 20.8406L112.594 18.1484ZM104.367 16.9414L102.239 19.0562L102.246 19.0627L104.367 16.9414ZM104.355 7.35547L102.208 5.26033L102.208 5.2605L104.355 7.35547ZM113.977 7.35547L111.829 9.45061L111.836 9.45712L113.977 7.35547ZM115.863 12.4414L118.863 12.4991L118.863 12.4702V12.4414H115.863ZM112.641 10.5312V13.5312H116.66L115.517 9.67791L112.641 10.5312ZM111.387 8.79688L109.631 11.2297L109.639 11.235L109.646 11.2401L111.387 8.79688ZM106.887 8.87891L108.672 11.2896L108.678 11.2856L106.887 8.87891ZM105.715 10.5312L102.985 9.2878L101.052 13.5312H105.715V10.5312ZM115.852 10.0508H105.574V16.0508H115.852V10.0508ZM102.614 13.5357C102.866 15.0754 103.583 16.468 104.826 17.5142L108.689 12.9233C108.651 12.8914 108.579 12.8387 108.535 12.5659L102.614 13.5357ZM104.857 17.5394C106.14 18.5908 107.677 19.0156 109.23 19.0156V13.0156C108.784 13.0156 108.673 12.9092 108.659 12.8981L104.857 17.5394ZM109.23 19.0156C111.21 19.0156 112.987 18.291 114.404 16.9122L110.221 12.6113C109.919 12.9043 109.642 13.0156 109.23 13.0156V19.0156ZM111.037 17.4772L113.733 18.7429L116.283 13.3118L113.588 12.0462L111.037 17.4772ZM112.556 14.2989C112.139 14.8899 111.706 15.2418 111.27 15.4562L113.917 20.8406C115.356 20.1332 116.533 19.071 117.46 17.7558L112.556 14.2989ZM111.288 15.4474C110.843 15.6626 110.196 15.8281 109.254 15.8281V21.8281C110.89 21.8281 112.47 21.5405 113.899 20.8495L111.288 15.4474ZM109.254 15.8281C107.942 15.8281 107.112 15.4433 106.489 14.8201L102.246 19.0627C104.138 20.9552 106.566 21.8281 109.254 21.8281V15.8281ZM106.495 14.8267C105.834 14.1617 105.48 13.3574 105.48 12.1953H99.4805C99.4805 14.8301 100.385 17.1899 102.239 19.0561L106.495 14.8267ZM105.48 12.1953C105.48 10.9582 105.849 10.1201 106.503 9.45044L102.208 5.2605C100.361 7.1533 99.4805 9.54177 99.4805 12.1953H105.48ZM106.503 9.4506C107.165 8.77153 107.951 8.42188 109.078 8.42188V2.42188C106.424 2.42188 104.061 3.36129 102.208 5.26033L106.503 9.4506ZM109.078 8.42188C110.379 8.42188 111.204 8.80927 111.829 9.4506L116.124 5.26033C114.234 3.32354 111.792 2.42188 109.078 2.42188V8.42188ZM111.836 9.45712C112.447 10.0802 112.863 10.9704 112.863 12.4414H118.863C118.863 9.69362 118.021 7.19322 116.117 5.25382L111.836 9.45712ZM112.864 12.3837L112.852 12.9931L118.851 13.1085L118.863 12.4991L112.864 12.3837ZM115.517 9.67791C115.108 8.30146 114.277 7.17279 113.128 6.35361L109.646 11.2401C109.713 11.2877 109.734 11.317 109.738 11.3221C109.741 11.3262 109.751 11.3405 109.765 11.3846L115.517 9.67791ZM113.142 6.36403C111.973 5.52078 110.629 5.12891 109.23 5.12891V11.1289C109.472 11.1289 109.566 11.1823 109.631 11.2297L113.142 6.36403ZM109.23 5.12891C107.738 5.12891 106.319 5.56175 105.096 6.47221L108.678 11.2856C108.798 11.1961 108.942 11.1289 109.23 11.1289V5.12891ZM105.101 6.46823C104.086 7.2202 103.433 8.30345 102.985 9.2878L108.445 11.7747C108.567 11.5069 108.665 11.3462 108.724 11.2619C108.786 11.175 108.777 11.212 108.672 11.2896L105.101 6.46823ZM105.715 13.5312H112.641V7.53125H105.715V13.5312ZM117.703 5.75V2.75H114.703V5.75H117.703ZM120.445 5.75H123.445V2.75H120.445V5.75ZM120.445 7.35547H117.445L123.161 8.62963L120.445 7.35547ZM124.547 5.75L127.368 6.77041L128.289 4.22508L125.851 3.04835L124.547 5.75ZM123.551 8.50391L122.209 11.1872L125.225 12.6951L126.372 9.52431L123.551 8.50391ZM121.371 9.13672L118.758 7.66276L118.751 7.67553L118.744 7.68838L121.371 9.13672ZM120.867 12.7227H117.867V12.751L117.868 12.7792L120.867 12.7227ZM120.879 13.3438H123.879V13.3155L123.878 13.2872L120.879 13.3438ZM120.879 18.5V21.5H123.879V18.5H120.879ZM117.703 18.5H114.703V21.5H117.703V18.5ZM117.703 8.75H120.445V2.75H117.703V8.75ZM117.445 5.75V7.35547H123.445V5.75H117.445ZM123.161 8.62963C123.217 8.51131 123.261 8.44986 123.282 8.42432C123.302 8.40102 123.305 8.40199 123.293 8.41021L119.965 3.41791C118.94 4.10102 118.216 5.04375 117.729 6.08131L123.161 8.62963ZM123.293 8.41021C123.301 8.40459 123.303 8.40408 123.299 8.40617C123.295 8.40833 123.286 8.4117 123.276 8.41494C123.265 8.41819 123.256 8.42019 123.248 8.42124C123.241 8.42227 123.24 8.42188 123.246 8.42188V2.42188C122.062 2.42188 120.945 2.7646 119.965 3.41791L123.293 8.41021ZM123.246 8.42188C123.217 8.42188 123.194 8.41995 123.176 8.41772C123.159 8.4155 123.15 8.41316 123.148 8.41279C123.146 8.41214 123.176 8.41968 123.243 8.45165L125.851 3.04835C125.077 2.67479 124.199 2.42188 123.246 2.42188V8.42188ZM121.726 4.72959L120.73 7.4835L126.372 9.52431L127.368 6.77041L121.726 4.72959ZM124.892 5.82062C124.364 5.55627 123.557 5.22266 122.625 5.22266V11.2227C122.371 11.2227 122.207 11.1758 122.166 11.1634C122.119 11.1492 122.13 11.1478 122.209 11.1872L124.892 5.82062ZM122.625 5.22266C120.622 5.22266 119.384 6.55401 118.758 7.66276L123.984 10.6107C124.015 10.555 123.947 10.7026 123.71 10.8754C123.433 11.0769 123.048 11.2227 122.625 11.2227V5.22266ZM118.744 7.68838C118.316 8.46528 118.125 9.33917 118.022 10.0728C117.912 10.8569 117.867 11.7514 117.867 12.7227H123.867C123.867 11.9127 123.906 11.3188 123.964 10.9077C124.029 10.446 124.091 10.4175 123.998 10.5851L118.744 7.68838ZM117.868 12.7792L117.879 13.4003L123.878 13.2872L123.867 12.6661L117.868 12.7792ZM117.879 13.3438V18.5H123.879V13.3438H117.879ZM120.879 15.5H117.703V21.5H120.879V15.5ZM120.703 18.5V5.75H114.703V18.5H120.703Z" fill="white" mask="url(#path-1-outside-1_378_4293)"/>
</g>
<defs>
<filter id="filter0_d_378_4293" x="0.957031" y="0.5" width="127.59" height="26.3281" filterUnits="userSpaceOnUse" color-interpolation-filters="sRGB">
<feFlood flood-opacity="0" result="BackgroundImageFix"/>
<feColorMatrix in="SourceAlpha" type="matrix" values="0 0 0 0 0 0 0 0 0 0 0 0 0 0 0 0 0 0 127 0" result="hardAlpha"/>
<feOffset dy="4"/>
<feGaussianBlur stdDeviation="2"/>
<feComposite in2="hardAlpha" operator="out"/>
<feColorMatrix type="matrix" values="0 0 0 0 0 0 0 0 0 0 0 0 0 0 0 0 0 0 0.25 0"/>
<feBlend mode="normal" in2="BackgroundImageFix" result="effect1_dropShadow_378_4293"/>
<feBlend mode="normal" in="SourceGraphic" in2="effect1_dropShadow_378_4293" result="shape"/>
</filter>
</defs>
</svg>
