<svg xmlns="http://www.w3.org/2000/svg" viewBox="0 0 537.45 79.58"><defs><style>.cls-1{fill:#231f20;}.cls-2{fill:#fff;}.cls-3{fill:#7100ff;}</style></defs><g id="Layer_2" data-name="Layer 2"><g id="Layer_1-2" data-name="Layer 1"><path class="cls-1" d="M39.52,76.83a36.77,36.77,0,1,1,0-73.53h1.54a36.77,36.77,0,0,1,0,73.53Z"/><path class="cls-2" d="M41.06,6.05a34,34,0,0,1,34,34h0a34,34,0,0,1-34,34H39.52a34,34,0,0,1-34-34h0a34,34,0,0,1,34-34h1.54m0-5.5H39.52a39.52,39.52,0,1,0,0,79h1.54a39.52,39.52,0,0,0,0-79Z"/><path class="cls-2" d="M38,23.76s0,0,0,0h0c-4.86,1.7-6.4,7.61-6.4,7.61a0,0,0,0,0,0,0s0,0,0,0c8.79-11.51,17-7.79,17-7.79s0,0,0,0,0,0,0,0a3.26,3.26,0,0,0-3.38,2l12.2,13.63a1.71,1.71,0,0,1-.39,1.06,2.47,2.47,0,0,0-1-.54c-.48-.16-.92-.23-.92-.59a.32.32,0,0,1,.34-.33.26.26,0,0,1,.16.05h0a.34.34,0,0,0-.32-.18.62.62,0,0,0-.64.61.8.8,0,0,0,.43.76c.27.19.79.42.79.81a.51.51,0,0,1-.37.51,10.78,10.78,0,0,1-2.32.77,3.34,3.34,0,0,0-1.16-1.93c-2.38-2.43-9.77-.15-9.77-5.71,0-2.54,2.4-3.28,3.58-3.28a3,3,0,0,1,1.68.46h0s0,0,0,0a3.54,3.54,0,0,0-3.24-1.85A6.26,6.26,0,0,0,38,36.08c0,8.79,12.31,8.23,12.31,15.66a5.13,5.13,0,0,1-3.85,5.14,2.71,2.71,0,0,0,1-2.11c0-6.28-14.55-4.93-14.55-11.83a3.58,3.58,0,0,1,2.88-3.65s0,0,0,0v0A2.35,2.35,0,0,0,34.69,39a5.63,5.63,0,0,0-5.3,5.82c0,5,6.47,8.1,6.47,10.5a2.75,2.75,0,0,1-.66,1.75A17.21,17.21,0,0,1,23.1,40.55c0-11.5,10.73-16.79,14.94-16.79"/><path class="cls-1" d="M89.32,75.56V6.08H105c7.42,0,12.71.7,16.17,2.15a18.1,18.1,0,0,1,8.59,7.35,22.1,22.1,0,0,1,3.09,11.82,20.2,20.2,0,0,1-4.09,12.84,21,21,0,0,1-10.9,7.11A46.4,46.4,0,0,1,107,48.44V75.56Zm18.8-44.47c3.68,0,5-.34,5.41-.49A2.88,2.88,0,0,0,115,29.48a3.62,3.62,0,0,0,.55-2.1A3.08,3.08,0,0,0,114,24.33c-.46-.27-1.93-.88-6.34-.88H107v7.64Z"/><path class="cls-2" d="M105,8.83q10.49,0,15.12,1.93a15.36,15.36,0,0,1,7.3,6.27,19.26,19.26,0,0,1,2.68,10.37,17.45,17.45,0,0,1-3.5,11.14,18.25,18.25,0,0,1-9.51,6.17q-3.52,1-12.83,1v27.1H92.07v-64H105m-.74,25h3.87a20.73,20.73,0,0,0,6.35-.66A5.58,5.58,0,0,0,117.28,31a6.31,6.31,0,0,0,1-3.64A5.83,5.83,0,0,0,115.43,22q-2.09-1.27-7.74-1.27h-3.44V33.84M105,3.33H86.57v75h23.18V51.11A39.32,39.32,0,0,0,118.59,50a23.57,23.57,0,0,0,12.31-8.06,22.84,22.84,0,0,0,4.69-14.54,24.8,24.8,0,0,0-3.5-13.26,20.81,20.81,0,0,0-9.86-8.45C118.42,4.1,112.78,3.33,105,3.33Zm4.76,25v-2a10.19,10.19,0,0,1,2.88.44l.12.09a3.86,3.86,0,0,1,0,.59,1.58,1.58,0,0,1-.07.56.3.3,0,0,1-.15.08,11.94,11.94,0,0,1-2.83.29Z"/><path class="cls-1" d="M154.62,76.78a23.78,23.78,0,0,1-17.86-8,27.59,27.59,0,0,1-7.44-19.56c0-8,2.43-14.66,7.21-19.83a23.35,23.35,0,0,1,17.74-7.89,23,23,0,0,1,9.09,1.83A24.4,24.4,0,0,1,166.43,25V22.74H183.8V75.56H166.43v-2.1a21.34,21.34,0,0,1-3.17,1.65A22.28,22.28,0,0,1,154.62,76.78ZM156.69,38a9.3,9.3,0,0,0-7.14,3,11.31,11.31,0,0,0-2.9,8.11,11.42,11.42,0,0,0,3,8.21,9.27,9.27,0,0,0,7.12,3.09,9.53,9.53,0,0,0,7.28-3A11.49,11.49,0,0,0,167,49.06,11,11,0,0,0,164,41,9.65,9.65,0,0,0,156.69,38Z"/><path class="cls-2" d="M154.27,24.27a20.06,20.06,0,0,1,8,1.61,21.78,21.78,0,0,1,6.91,4.83V25.49h11.87V72.81H169.18v-5a23.08,23.08,0,0,1-7,4.76A19.36,19.36,0,0,1,154.62,74a21.07,21.07,0,0,1-15.86-7.11,24.82,24.82,0,0,1-6.69-17.68q0-11,6.48-18a20.59,20.59,0,0,1,15.72-7m2.47,38.89a12.19,12.19,0,0,0,9.27-3.9,14.2,14.2,0,0,0,3.69-10.2,13.81,13.81,0,0,0-3.69-10,12.38,12.38,0,0,0-9.32-3.83,12,12,0,0,0-9.14,3.89,14.05,14.05,0,0,0-3.65,10,14.18,14.18,0,0,0,3.71,10.09,12,12,0,0,0,9.13,4m-2.47-44.39a26,26,0,0,0-19.76,8.77c-5.27,5.7-7.94,13-7.94,21.7a30.25,30.25,0,0,0,8.19,21.45,26.44,26.44,0,0,0,19.86,8.84,25.19,25.19,0,0,0,9.06-1.62v.4h22.87V20H163.68v.52a25.85,25.85,0,0,0-9.41-1.74Zm2.47,38.89a6.54,6.54,0,0,1-5.12-2.22,8.72,8.72,0,0,1-2.22-6.33,8.58,8.58,0,0,1,2.16-6.23,6.49,6.49,0,0,1,5.13-2.15,7,7,0,0,1,5.36,2.14,8.37,8.37,0,0,1,2.15,6.19A8.88,8.88,0,0,1,162,55.48a6.7,6.7,0,0,1-5.28,2.18Z"/><polygon class="cls-1" points="194.29 75.56 194.29 38.46 188.2 38.46 188.2 22.74 194.29 22.74 194.29 5.29 211.66 5.29 211.66 22.74 218.71 22.74 218.71 38.46 211.66 38.46 211.66 75.56 194.29 75.56"/><path class="cls-2" d="M208.91,8V25.49H216V35.71h-7.05v37.1H197V35.71H191V25.49H197V8h11.87m5.5-5.5H191.54V20h-6.09V41.21h6.09v37.1h22.87V41.21h7.05V20h-7.05V2.54Z"/><path class="cls-1" d="M253.38,75.56V52.06c0-6.49-.37-9.25-.69-10.42A5.12,5.12,0,0,0,251,38.77a4.81,4.81,0,0,0-3-.88,6.09,6.09,0,0,0-4.33,1.67,10,10,0,0,0-2.79,5.15c-.16.68-.44,2.76-.44,9.09V75.56H223.15V4.47h17.29v20.4a25.75,25.75,0,0,1,3.17-1.63,21,21,0,0,1,8.22-1.72,18.77,18.77,0,0,1,13.82,5.69c3.28,3.34,4.93,8.16,4.93,14.33v34Z"/><path class="cls-2" d="M237.69,7.22V30.27a27,27,0,0,1,7-4.5,18.09,18.09,0,0,1,7.14-1.5,16.06,16.06,0,0,1,11.87,4.87q4.14,4.21,4.13,12.4V72.81h-11.7V52.06q0-8.22-.78-11.13a7.74,7.74,0,0,0-2.68-4.35A7.49,7.49,0,0,0,248,35.14a8.79,8.79,0,0,0-6.2,2.4,12.66,12.66,0,0,0-3.59,6.52q-.53,2.13-.52,9.74v19H225.9V7.22h11.79m5.5-5.5H220.4V78.31h22.79V53.8c0-6.58.3-8.18.36-8.43a7.34,7.34,0,0,1,2-3.79,3.34,3.34,0,0,1,2.47-.94,2,2,0,0,1,1.35.32,2.89,2.89,0,0,1,.69,1.4c.18.66.59,2.94.59,9.7V78.31h22.7V41.54c0-6.92-1.92-12.38-5.7-16.25a21.5,21.5,0,0,0-15.8-6.52,23.49,23.49,0,0,0-8.64,1.67V1.72Z"/><polygon class="cls-1" points="279.59 75.56 279.59 6.08 316.85 6.08 316.85 23.45 297.18 23.45 297.18 29.57 316.85 29.57 316.85 46.77 297.18 46.77 297.18 75.56 279.59 75.56"/><path class="cls-2" d="M314.1,8.83V20.7H294.43V32.32H314.1V44H294.43V72.81H282.34v-64H314.1m5.5-5.5H276.84v75h23.09V49.52H319.6V26.82H299.93V26.2H319.6V3.33Z"/><path class="cls-1" d="M324.08,75.56V22.74h3.54a11,11,0,0,1-2.13-1.7,10.35,10.35,0,0,1-3-7.47,10,10,0,0,1,3-7.29,10.24,10.24,0,0,1,14.59,0,10.2,10.2,0,0,1,3,7.41,10.1,10.1,0,0,1-3,7.35A11,11,0,0,1,338,22.74h3.42V75.56Z"/><path class="cls-2" d="M332.77,6a7.26,7.26,0,0,1,5.36,2.26,7.52,7.52,0,0,1,2.23,5.48,7.46,7.46,0,0,1-2.21,5.42,7.44,7.44,0,0,1-10.69-.05,7.63,7.63,0,0,1-2.24-5.54,7.32,7.32,0,0,1,2.21-5.35A7.28,7.28,0,0,1,332.77,6m5.94,19.49V72.81H326.83V25.49h11.88M332.77.5a12.77,12.77,0,0,0-9.23,3.84,12.79,12.79,0,0,0-3.82,9.23A13.33,13.33,0,0,0,321.33,20V78.31h22.88V20.19a13,13,0,0,0,1.65-6.45A13,13,0,0,0,342,4.4,12.78,12.78,0,0,0,332.77.5Z"/><path class="cls-1" d="M372.52,75.56V52.09c0-6.7-.36-9.42-.66-10.53a5,5,0,0,0-1.68-2.78,4.66,4.66,0,0,0-3-.89,6,6,0,0,0-4.31,1.68,10.34,10.34,0,0,0-2.78,5.28c-.16.72-.44,2.83-.44,9V75.56H342.29V22.74h17.38v2.15a23.07,23.07,0,0,1,3.53-1.84A20.62,20.62,0,0,1,371,21.52a19,19,0,0,1,13.89,5.72c3.27,3.32,4.93,8.12,4.93,14.3v34Z"/><path class="cls-2" d="M371,24.27a16.26,16.26,0,0,1,11.94,4.91Q387,33.36,387,41.54V72.81H375.27V52.09q0-8.48-.76-11.25a7.66,7.66,0,0,0-2.65-4.24,7.39,7.39,0,0,0-4.66-1.46A8.73,8.73,0,0,0,361,37.56a12.81,12.81,0,0,0-3.58,6.66,53.62,53.62,0,0,0-.52,9.61v19H345V25.49h11.88v4.85a28.47,28.47,0,0,1,7.32-4.74A17.61,17.61,0,0,1,371,24.27m0-5.5a23.06,23.06,0,0,0-8.53,1.64V20H339.54V78.31h22.88V53.83c0-6.42.31-8.08.37-8.35a7.67,7.67,0,0,1,2-3.91,3.29,3.29,0,0,1,2.43-.93,2,2,0,0,1,1.31.31,2.8,2.8,0,0,1,.7,1.33c.13.49.56,2.63.56,9.81V78.31h22.75V41.54c0-6.93-1.93-12.38-5.72-16.22A21.64,21.64,0,0,0,371,18.77Z"/><path class="cls-1" d="M416.42,76.78a23.78,23.78,0,0,1-17.86-8,27.55,27.55,0,0,1-7.44-19.56c0-8,2.43-14.66,7.21-19.83a23.32,23.32,0,0,1,17.74-7.89,22.91,22.91,0,0,1,9.08,1.83A23.84,23.84,0,0,1,428.23,25V4.47H445.6V75.56H428.23v-2.1a21.84,21.84,0,0,1-3.17,1.65A22.32,22.32,0,0,1,416.42,76.78ZM418.49,38a9.3,9.3,0,0,0-7.14,3,11.31,11.31,0,0,0-2.9,8.11,11.42,11.42,0,0,0,3,8.21,9.26,9.26,0,0,0,7.11,3.09,9.51,9.51,0,0,0,7.28-3,11.46,11.46,0,0,0,2.94-8.31A11.08,11.08,0,0,0,425.83,41,9.65,9.65,0,0,0,418.49,38Z"/><path class="cls-2" d="M442.85,7.22V72.81H431v-5a23.21,23.21,0,0,1-7,4.76A19.36,19.36,0,0,1,416.42,74a21.07,21.07,0,0,1-15.86-7.11,24.82,24.82,0,0,1-6.69-17.68q0-11,6.48-18a20.59,20.59,0,0,1,15.72-7,20.06,20.06,0,0,1,8,1.61A21.78,21.78,0,0,1,431,30.71V7.22h11.87M418.53,63.16a12.22,12.22,0,0,0,9.28-3.9,14.2,14.2,0,0,0,3.69-10.2,13.81,13.81,0,0,0-3.69-10,12.38,12.38,0,0,0-9.32-3.83,12,12,0,0,0-9.14,3.89,14.05,14.05,0,0,0-3.65,10,14.18,14.18,0,0,0,3.71,10.09,12,12,0,0,0,9.12,4M448.35,1.72H425.48V20.51a26.55,26.55,0,0,0-29.17,7c-5.27,5.7-7.94,13-7.94,21.7a30.21,30.21,0,0,0,8.19,21.45,26.44,26.44,0,0,0,19.86,8.84,25.19,25.19,0,0,0,9.06-1.62v.4h22.87V1.72ZM418.53,57.66a6.54,6.54,0,0,1-5.11-2.22,8.72,8.72,0,0,1-2.22-6.33,8.58,8.58,0,0,1,2.16-6.23,6.48,6.48,0,0,1,5.13-2.15,7,7,0,0,1,5.36,2.14A8.41,8.41,0,0,1,426,49.06a8.92,8.92,0,0,1-2.18,6.42,6.72,6.72,0,0,1-5.29,2.18Z"/><path class="cls-1" d="M474.33,76.78c-8.15,0-14.91-2.63-20.09-7.83a26.68,26.68,0,0,1-7.81-19.54c0-7.93,2.62-14.63,7.77-19.91a26.23,26.23,0,0,1,19.47-8c8.19,0,15,2.68,20.15,8s7.79,12.29,7.79,20.82l-.1,5H464.36a9.39,9.39,0,0,0,2.48,3.16,11.09,11.09,0,0,0,7.4,2.34A13.08,13.08,0,0,0,483.76,57l1.36-1.33,14.7,6.9-1.89,2.68a26.54,26.54,0,0,1-10,8.74A30.93,30.93,0,0,1,474.33,76.78Zm8-36.3A11,11,0,0,0,480.7,39a10.69,10.69,0,0,0-6.44-2,11.41,11.41,0,0,0-7.07,2.24,6.35,6.35,0,0,0-1.2,1.17Z"/><path class="cls-2" d="M473.67,24.27q11.19,0,18.19,7.15t7,18.9l0,2.27H460.67a12.68,12.68,0,0,0,4.41,8,13.84,13.84,0,0,0,9.16,3,15.83,15.83,0,0,0,11.44-4.65l10,4.7a23.68,23.68,0,0,1-9,7.85A28.1,28.1,0,0,1,474.33,74q-11.15,0-18.14-7a23.92,23.92,0,0,1-7-17.6q0-10.83,7-18a23.51,23.51,0,0,1,17.51-7.15m-12.48,19h25.75a11.89,11.89,0,0,0-4.64-6.43,13.41,13.41,0,0,0-8-2.48,14.22,14.22,0,0,0-8.71,2.78,15.59,15.59,0,0,0-4.36,6.13m12.48-24.46a28.85,28.85,0,0,0-21.44,8.81c-5.67,5.82-8.55,13.16-8.55,21.83a29.35,29.35,0,0,0,8.61,21.48c5.72,5.73,13.13,8.64,22,8.64a33.51,33.51,0,0,0,14.8-3.1,29.11,29.11,0,0,0,11.05-9.63L504,61.44,498,58.66l-1.21-.57h7.4l.1-5.4.05-2.26v-.11c0-9.28-2.89-16.93-8.57-22.74s-13.17-8.81-22.12-8.81Zm.17,39.32h0Z"/><path class="cls-1" d="M502.44,75.56V22.74h15.68v1.15l.12-.08a13.35,13.35,0,0,1,7.53-2.29,13.87,13.87,0,0,1,6,1.49L534,24.09l-5.59,15.46-2.76-1.38a5.55,5.55,0,0,0-2.21-.75c-.28,0-1.13,0-2.23,2-.58,1-1.55,4-1.55,12l.05,2.25V75.56Z"/><path class="cls-2" d="M525.76,24.27a11.13,11.13,0,0,1,4.83,1.22L526.9,35.71a8.13,8.13,0,0,0-3.44-1q-2.75,0-4.63,3.39t-1.9,13.31l.05,2.3V72.81H505.19V25.49h10.18v6a12.69,12.69,0,0,1,4.39-5.35,10.6,10.6,0,0,1,6-1.83m0-5.5A16,16,0,0,0,519.57,20H499.69V78.31h22.79V53.57l-.05-2.25c0-8,1-10.23,1.2-10.58a3.77,3.77,0,0,1,.23-.38l.58.27L530,43.39l2.1-5.81,3.7-10.22,1.68-4.67L533,20.53a16.56,16.56,0,0,0-7.22-1.76Z"/><path class="cls-3" d="M332.84,24.4a10.2,10.2,0,0,1-7.55-3.19,10.55,10.55,0,0,1-3.09-7.64,10.23,10.23,0,0,1,3.09-7.47,10.5,10.5,0,0,1,14.95.05,10.46,10.46,0,0,1,3.1,7.59,10.38,10.38,0,0,1-3.08,7.53A10.13,10.13,0,0,1,332.84,24.4Z"/><path class="cls-2" d="M332.75,6a7.23,7.23,0,0,1,5.35,2.26,7.53,7.53,0,0,1,2.24,5.48,7.46,7.46,0,0,1-2.21,5.42,7.45,7.45,0,0,1-10.7-.05,7.66,7.66,0,0,1-2.23-5.54,7.32,7.32,0,0,1,2.21-5.35A7.28,7.28,0,0,1,332.75,6m0-6a13.31,13.31,0,0,0-9.59,4,13.33,13.33,0,0,0-4,9.59,13.66,13.66,0,0,0,3.94,9.74,13.32,13.32,0,0,0,9.7,4.09,13.16,13.16,0,0,0,9.56-4,13.43,13.43,0,0,0,3.94-9.63,13.49,13.49,0,0,0-4-9.69,13.24,13.24,0,0,0-9.62-4Z"/></g></g></svg>