<svg width="183" height="9" viewBox="0 0 183 9" fill="none" xmlns="http://www.w3.org/2000/svg">
<g clip-path="url(#clip0_117_7069)">
<path d="M1.5 4L3.58579 6.08579C4.36684 6.86684 5.63316 6.86684 6.41421 6.08579L7.08579 5.41421C7.86684 4.63316 9.13316 4.63316 9.91421 5.41421L10.5858 6.08579C11.3668 6.86684 12.6332 6.86684 13.4142 6.08579L14.0858 5.41421C14.8668 4.63316 16.1332 4.63316 16.9142 5.41421L17.5858 6.08579C18.3668 6.86684 19.6332 6.86684 20.4142 6.08579L21.0858 5.41421C21.8668 4.63316 23.1332 4.63316 23.9142 5.41421L24.5858 6.08579C25.3668 6.86684 26.6332 6.86684 27.4142 6.08579L28.0858 5.41421C28.8668 4.63316 30.1332 4.63316 30.9142 5.41421L31.5858 6.08579C32.3668 6.86684 33.6332 6.86684 34.4142 6.08579L35.0858 5.41421C35.8668 4.63316 37.1332 4.63316 37.9142 5.41421L38.5858 6.08579C39.3668 6.86684 40.6332 6.86684 41.4142 6.08579L42.0858 5.41421C42.8668 4.63316 44.1332 4.63316 44.9142 5.41421L45.5858 6.08579C46.3668 6.86684 47.6332 6.86684 48.4142 6.08579L49.0858 5.41421C49.8668 4.63316 51.1332 4.63316 51.9142 5.41421L52.5858 6.08579C53.3668 6.86684 54.6332 6.86684 55.4142 6.08579L56.0858 5.41421C56.8668 4.63316 58.1332 4.63316 58.9142 5.41421L59.5858 6.08579C60.3668 6.86684 61.6332 6.86684 62.4142 6.08579L63.0858 5.41421C63.8668 4.63316 65.1332 4.63316 65.9142 5.41421L66.5858 6.08579C67.3668 6.86684 68.6332 6.86684 69.4142 6.08579L70.0858 5.41421C70.8668 4.63316 72.1332 4.63316 72.9142 5.41421L73.5858 6.08579C74.3668 6.86684 75.6332 6.86684 76.4142 6.08579L77.0858 5.41421C77.8668 4.63316 79.1332 4.63316 79.9142 5.41421L80.5858 6.08579C81.3668 6.86684 82.6332 6.86684 83.4142 6.08579L84.0858 5.41421C84.8668 4.63316 86.1332 4.63316 86.9142 5.41421L87.5858 6.08579C88.3668 6.86684 89.6332 6.86684 90.4142 6.08579L91.0858 5.41421C91.8668 4.63316 93.1332 4.63316 93.9142 5.41421L94.5858 6.08579C95.3668 6.86684 96.6332 6.86684 97.4142 6.08579L98.0858 5.41421C98.8668 4.63316 100.133 4.63316 100.914 5.41421L101.586 6.08579C102.367 6.86684 103.633 6.86684 104.414 6.08579L105.086 5.41421C105.867 4.63316 107.133 4.63316 107.914 5.41421L108.586 6.08579C109.367 6.86684 110.633 6.86684 111.414 6.08579L112.086 5.41421C112.867 4.63316 114.133 4.63316 114.914 5.41421L115.586 6.08579C116.367 6.86684 117.633 6.86684 118.414 6.08579L119.086 5.41421C119.867 4.63316 121.133 4.63316 121.914 5.41421L122.586 6.08579C123.367 6.86684 124.633 6.86684 125.414 6.08579L126.086 5.41421C126.867 4.63316 128.133 4.63316 128.914 5.41421L129.586 6.08579C130.367 6.86684 131.633 6.86684 132.414 6.08579L133.086 5.41421C133.867 4.63316 135.133 4.63316 135.914 5.41421L136.586 6.08579C137.367 6.86684 138.633 6.86684 139.414 6.08579L140.086 5.41421C140.867 4.63316 142.133 4.63316 142.914 5.41421L143.586 6.08579C144.367 6.86684 145.633 6.86684 146.414 6.08579L147.086 5.41421C147.867 4.63316 149.133 4.63316 149.914 5.41421L150.586 6.08579C151.367 6.86684 152.633 6.86684 153.414 6.08579L154.086 5.41421C154.867 4.63316 156.133 4.63316 156.914 5.41421L157.586 6.08579C158.367 6.86684 159.633 6.86684 160.414 6.08579L161.086 5.41421C161.867 4.63316 163.133 4.63316 163.914 5.41421L164.586 6.08579C165.367 6.86684 166.633 6.86684 167.414 6.08579L168.086 5.41421C168.867 4.63316 170.133 4.63316 170.914 5.41421L171.586 6.08579C172.367 6.86684 173.633 6.86684 174.414 6.08579L175.086 5.41421C175.867 4.63316 177.133 4.63316 177.914 5.41421L178.586 6.08579C179.367 6.86684 180.633 6.86684 181.414 6.08579L183.5 4" stroke="#C0D8E1"/>
</g>
<defs>
<clipPath id="clip0_117_7069">
<rect width="183" height="8" fill="white" transform="translate(0 0.5)"/>
</clipPath>
</defs>
</svg>
